<?xml version="1.0" encoding="UTF-8" standalone="no"?>
<!-- Created with Inkscape (http://www.inkscape.org/) -->

<svg
   width="45.225296mm"
   height="11.157955mm"
   viewBox="0 0 45.225296 11.157955"
   version="1.1"
   id="svg5"
   inkscape:version="1.1.2 (b8e25be8, 2022-02-05)"
   sodipodi:docname="logo.svg"
   xmlns:inkscape="http://www.inkscape.org/namespaces/inkscape"
   xmlns:sodipodi="http://sodipodi.sourceforge.net/DTD/sodipodi-0.dtd"
   xmlns="http://www.w3.org/2000/svg"
   xmlns:svg="http://www.w3.org/2000/svg">
  <sodipodi:namedview
     id="namedview7"
     pagecolor="#000000"
     bordercolor="#666666"
     borderopacity="1.0"
     inkscape:pageshadow="2"
     inkscape:pageopacity="0"
     inkscape:pagecheckerboard="0"
     inkscape:document-units="mm"
     showgrid="false"
     inkscape:zoom="1.3808221"
     inkscape:cx="40.193447"
     inkscape:cy="27.157735"
     inkscape:window-width="1920"
     inkscape:window-height="955"
     inkscape:window-x="0"
     inkscape:window-y="25"
     inkscape:window-maximized="0"
     inkscape:current-layer="layer1"
     fit-margin-top="0"
     fit-margin-left="0"
     fit-margin-right="0"
     fit-margin-bottom="0" />
  <defs
     id="defs2" />
  <g
     inkscape:label="Layer 1"
     inkscape:groupmode="layer"
     id="layer1"
     transform="translate(-55.169475,-184.82512)">
    <g
       aria-label="Mister"
       id="text781"
       style="font-weight:500;font-size:10.5833px;line-height:1.25;font-family:Dosis;-inkscape-font-specification:'Dosis Medium';fill:#ffffff;stroke-width:0.264583">
      <path
         d="m 55.613973,193.1458 q -0.158749,0 -0.306916,-0.0741 -0.137582,-0.0847 -0.137582,-0.24341 v -6.98498 q 0,-0.24341 0.137582,-0.33866 0.148167,-0.0952 0.306916,-0.0952 0.169333,0 0.285749,0.0635 0.127,0.0635 0.22225,0.19049 0.105833,0.11642 0.201082,0.30692 l 1.672162,3.18557 1.672161,-3.18557 q 0.105833,-0.1905 0.201083,-0.30692 0.105833,-0.12699 0.222249,-0.19049 0.127,-0.0635 0.285749,-0.0635 0.179916,0 0.306916,0.0952 0.137583,0.0952 0.137583,0.33866 v 6.98498 q 0,0.15875 -0.137583,0.24341 -0.137583,0.0741 -0.306916,0.0741 -0.169333,0 -0.306916,-0.0741 -0.137583,-0.0847 -0.137583,-0.24341 v -5.55623 l -1.608661,3.00565 q -0.07408,0.127 -0.15875,0.1905 -0.08467,0.0529 -0.179916,0.0529 -0.07408,0 -0.169333,-0.0529 -0.08467,-0.0529 -0.158749,-0.1905 l -1.598078,-3.04799 v 5.59857 q 0,0.15875 -0.137583,0.24341 -0.137583,0.0741 -0.306916,0.0741 z"
         id="path2676" />
      <path
         d="m 62.649056,186.75348 q -0.222249,0 -0.391582,-0.14816 -0.158749,-0.15875 -0.158749,-0.35983 0,-0.20109 0.158749,-0.34925 0.169333,-0.14817 0.391582,-0.14817 0.232833,0 0.380999,0.14817 0.15875,0.14816 0.15875,0.34925 0,0.20108 -0.15875,0.35983 -0.148166,0.14816 -0.380999,0.14816 z m 0,6.39232 q -0.190499,0 -0.317499,-0.0953 -0.116416,-0.10583 -0.116416,-0.22225 v -4.39207 q 0,-0.13758 0.116416,-0.22225 0.127,-0.0847 0.317499,-0.0847 0.179916,0 0.306916,0.0847 0.137583,0.0847 0.137583,0.22225 v 4.39207 q 0,0.11642 -0.137583,0.22225 -0.127,0.0953 -0.306916,0.0953 z"
         id="path2678" />
      <path
         d="m 65.762861,193.23046 q -0.507998,0 -0.89958,-0.127 -0.391582,-0.13758 -0.613832,-0.31749 -0.222249,-0.17992 -0.222249,-0.35984 0,-0.0847 0.04233,-0.16933 0.04233,-0.0952 0.105833,-0.15875 0.07408,-0.0741 0.15875,-0.0741 0.126999,0 0.275165,0.127 0.148167,0.11641 0.402166,0.24341 0.253999,0.127 0.730247,0.127 0.560915,0 0.783165,-0.20108 0.222249,-0.21167 0.222249,-0.46566 0,-0.32809 -0.190499,-0.49742 -0.1905,-0.17992 -0.486832,-0.27517 -0.296333,-0.10583 -0.624415,-0.20108 -0.328082,-0.0952 -0.624415,-0.23283 -0.296332,-0.14817 -0.486831,-0.40217 -0.179916,-0.26458 -0.179916,-0.69849 0,-0.34925 0.169332,-0.68792 0.169333,-0.33866 0.550332,-0.56091 0.380999,-0.23284 1.015997,-0.23284 0.370415,0 0.709081,0.0847 0.349249,0.0741 0.560915,0.21167 0.222249,0.127 0.222249,0.27516 0,0.0635 -0.04233,0.16933 -0.04233,0.10584 -0.116417,0.1905 -0.07408,0.0847 -0.190499,0.0847 -0.08467,0 -0.243416,-0.0741 -0.148166,-0.0847 -0.370415,-0.15875 -0.211666,-0.0741 -0.518582,-0.0741 -0.349249,0 -0.560915,0.127 -0.211666,0.11642 -0.306916,0.28575 -0.09525,0.15875 -0.09525,0.32809 0,0.26458 0.179916,0.41274 0.190499,0.14817 0.486832,0.24342 0.306915,0.0847 0.634998,0.17992 0.328082,0.0847 0.624414,0.254 0.296333,0.15875 0.486832,0.44449 0.190499,0.28575 0.190499,0.762 0,0.64558 -0.465665,1.03717 -0.465665,0.38099 -1.312329,0.38099 z"
         id="path2680" />
      <path
         d="m 70.234636,193.1458 q -0.857247,0 -1.312329,-0.381 -0.444499,-0.381 -0.444499,-1.21708 v -5.4504 q 0,-0.13758 0.137583,-0.22225 0.137583,-0.0847 0.296333,-0.0847 0.169333,0 0.306915,0.0847 0.137583,0.0847 0.137583,0.22225 v 2.03199 h 1.333496 q 0.127,0 0.190499,0.10584 0.07408,0.10583 0.07408,0.24341 0,0.13759 -0.07408,0.24342 -0.0635,0.0952 -0.190499,0.0952 h -1.333496 v 2.73049 q 0,0.45508 0.1905,0.64558 0.201082,0.17992 0.687914,0.17992 h 0.328082 q 0.1905,0 0.28575,0.11641 0.09525,0.11642 0.09525,0.26459 0,0.14816 -0.09525,0.27516 -0.09525,0.11642 -0.28575,0.11642 z"
         id="path2682" />
      <path
         d="m 73.810469,193.23046 q -0.687915,0 -1.21708,-0.254 -0.529165,-0.26458 -0.83608,-0.71966 -0.306916,-0.46566 -0.306916,-1.0795 v -1.11124 q 0,-0.53975 0.285749,-0.99483 0.296332,-0.45508 0.772581,-0.73025 0.476248,-0.27517 1.047746,-0.27517 0.550332,0 1.005414,0.254 0.465665,0.254 0.740831,0.68792 0.285749,0.43391 0.285749,1.00541 0,0.42333 -0.137583,0.61383 -0.137583,0.17992 -0.349249,0.22225 -0.211666,0.0423 -0.444498,0.0423 h -2.328326 v 0.3175 q 0,0.59267 0.423332,0.94192 0.423332,0.33866 1.09008,0.33866 0.391582,0 0.624414,-0.10583 0.232833,-0.10583 0.380999,-0.20108 0.148166,-0.10584 0.264583,-0.10584 0.116416,0 0.190499,0.0741 0.08467,0.0635 0.127,0.15875 0.04233,0.0952 0.04233,0.16933 0,0.13758 -0.201083,0.3175 -0.201083,0.16933 -0.582081,0.30691 -0.370416,0.127 -0.878414,0.127 z m -1.481662,-2.93157 h 1.95791 q 0.285749,0 0.370416,-0.0635 0.09525,-0.0741 0.09525,-0.27517 0,-0.31749 -0.158749,-0.58208 -0.148166,-0.27516 -0.423332,-0.4445 -0.275166,-0.16933 -0.624415,-0.16933 -0.328082,0 -0.603248,0.15875 -0.275166,0.14817 -0.444498,0.41275 -0.169333,0.26458 -0.169333,0.58208 z"
         id="path2684" />
      <path
         d="m 76.983805,193.1458 q -0.179916,0 -0.306916,-0.0953 -0.116416,-0.10583 -0.116416,-0.22225 v -4.39207 q 0,-0.13758 0.116416,-0.22225 0.127,-0.0847 0.306916,-0.0847 0.179916,0 0.296332,0.0847 0.116416,0.0847 0.116416,0.22225 v 0.49741 q 0.116417,-0.22224 0.317499,-0.41274 0.201083,-0.20109 0.465666,-0.32809 0.275165,-0.127 0.603248,-0.127 h 0.359832 q 0.137583,0 0.232832,0.11642 0.105833,0.11642 0.105833,0.28575 0,0.15875 -0.105833,0.27517 -0.09525,0.11641 -0.232832,0.11641 h -0.359832 q -0.338666,0 -0.645582,0.1905 -0.306915,0.1905 -0.507998,0.53975 -0.190499,0.33866 -0.190499,0.8255 v 2.41299 q 0,0.11642 -0.137583,0.22225 -0.127,0.0953 -0.317499,0.0953 z"
         id="path2686" />
    </g>
    <g
       aria-label="Blog"
       transform="scale(0.99788895,1.0021155)"
       id="text5723"
       style="font-size:11.1344px;line-height:1.25;fill:#0097a7;stroke-width:0.278363;fill-opacity:1">
      <path
         d="m 84.566314,192.97504 q -0.445376,0 -0.779408,-0.18929 -0.322897,-0.17815 -0.322897,-0.63466 0,-0.28949 0.144747,-0.64579 0.200419,0.22268 0.367435,0.31176 0.17815,0.0891 0.37857,0.0891 0.55672,0 0.823945,-0.62352 0.27836,-0.62353 0.27836,-1.38067 0,-1.41407 -1.057768,-1.41407 -0.300629,0 -0.512182,0.0334 l -0.913021,4.26447 h -1.603354 l 1.514279,-7.08148 1.647891,-0.22269 -0.523317,2.47184 h 0.06681 q 0.423107,0 0.790542,-0.26722 0.367435,-0.27836 0.590123,-0.69034 0.222688,-0.4231 0.222688,-0.84621 0,-0.51218 -0.367435,-0.85735 -0.356301,-0.34517 -1.102306,-0.34517 -0.679198,0 -1.324993,0.31177 -0.645795,0.30063 -1.057768,0.91302 -0.400839,0.61239 -0.400839,1.48087 0,0.41198 0.07794,0.57899 0.07794,0.15588 0.07794,0.17815 -0.590123,0 -0.890752,-0.23382 -0.300629,-0.24496 -0.300629,-0.79054 0,-0.75714 0.567855,-1.43634 0.567854,-0.6792 1.503144,-1.09117 0.935289,-0.42311 1.970788,-0.42311 0.779408,0 1.31386,0.24496 0.534451,0.24495 0.790542,0.64579 0.267226,0.40084 0.267226,0.87962 0,0.51218 -0.289495,0.99096 -0.289494,0.47878 -0.823945,0.77941 0.668064,0.12248 0.990961,0.62353 0.322898,0.48991 0.322898,1.16911 0,0.63466 -0.244957,1.38066 -0.233822,0.74601 -0.790542,1.29159 -0.545586,0.53446 -1.402935,0.53446 z"
         style="font-family:Lobster;-inkscape-font-specification:Lobster;fill:#0097a7;fill-opacity:1"
         id="path825" />
      <path
         d="m 88.492582,192.85256 q -0.534451,0 -0.868483,-0.33403 -0.322898,-0.33404 -0.322898,-1.0021 0,-0.27836 0.08907,-0.72374 l 1.191381,-5.57833 1.647892,-0.22269 -1.280457,6.01258 q -0.04454,0.16701 -0.04454,0.3563 0,0.22269 0.100209,0.3229 0.111344,0.0891 0.356301,0.0891 0.322898,0 0.601258,-0.26722 0.27836,-0.27836 0.400838,-0.71261 h 0.467645 q -0.411973,1.20252 -1.057768,1.63676 -0.645795,0.42311 -1.280456,0.42311 z"
         style="font-family:Lobster;-inkscape-font-specification:Lobster;fill:#0097a7;fill-opacity:1"
         id="path827" />
      <path
         d="m 91.995221,192.83029 q -0.823946,0 -1.302725,-0.42311 -0.478779,-0.42311 -0.478779,-1.33613 0,-0.75714 0.311763,-1.68129 0.311763,-0.92416 1.002096,-1.59222 0.690333,-0.6792 1.736966,-0.6792 1.425204,0 1.425204,1.78151 v 0.0111 q 0.0334,0.0111 0.122478,0.0111 0.367435,0 0.846215,-0.18928 0.478779,-0.20042 0.868483,-0.47878 l 0.100209,0.30063 q -0.322897,0.34517 -0.846214,0.59012 -0.512182,0.23382 -1.124574,0.33403 -0.08908,1.01323 -0.456511,1.77037 -0.367435,0.75714 -0.946424,1.16912 -0.578989,0.41197 -1.258187,0.41197 z m 0.445376,-1.0021 q 0.267225,0 0.534451,-0.30063 0.267226,-0.31176 0.467645,-0.83508 0.200419,-0.53445 0.289494,-1.18024 -0.300629,-0.0668 -0.300629,-0.46765 0,-0.45651 0.345167,-0.60125 -0.02227,-0.36744 -0.111344,-0.50105 -0.08907,-0.14475 -0.311763,-0.14475 -0.367436,0 -0.712602,0.53445 -0.345166,0.53445 -0.55672,1.28046 -0.211554,0.746 -0.211554,1.31386 0,0.53445 0.122479,0.72373 0.122478,0.17815 0.445376,0.17815 z"
         style="font-family:Lobster;-inkscape-font-specification:Lobster;fill:#0097a7;fill-opacity:1"
         id="path829" />
      <path
         d="m 97.2223,195.56935 q -0.523317,0 -0.924155,-0.34516 -0.389704,-0.33404 -0.389704,-0.85735 0,-0.48992 0.244957,-0.80168 0.244957,-0.31176 0.634661,-0.48991 0.389704,-0.17815 1.046633,-0.37857 l 0.10021,-0.46765 q -0.578989,0.62353 -1.336128,0.62353 -0.634661,0 -1.057768,-0.43424 -0.423107,-0.43425 -0.423107,-1.3584 0,-0.82395 0.322897,-1.72583 0.334032,-0.91302 0.979827,-1.53655 0.65693,-0.63466 1.558816,-0.63466 0.456511,0 0.679199,0.15588 0.222688,0.15588 0.222688,0.41197 v 0.0223 l 0.111344,-0.53445 h 1.61449 l -1.358399,6.45795 q -0.222688,1.06891 -0.790542,1.48088 -0.55672,0.41197 -1.235919,0.41197 z m 0.10021,-3.79683 q 0.256091,0 0.512182,-0.21155 0.267226,-0.22269 0.37857,-0.62353 l 0.567854,-2.69452 q -0.08907,-0.38971 -0.45651,-0.38971 -0.445376,0 -0.801677,0.52332 -0.356301,0.51218 -0.55672,1.24705 -0.200419,0.72374 -0.200419,1.28046 0,0.55672 0.155881,0.7126 0.167016,0.15588 0.400839,0.15588 z m -0.356301,2.80587 q 0.200419,0 0.37857,-0.21155 0.17815,-0.20042 0.27836,-0.65693 l 0.133612,-0.65693 q -0.590123,0.20042 -0.91302,0.46764 -0.322898,0.26723 -0.322898,0.69033 0,0.13362 0.133613,0.24496 0.133613,0.12248 0.311763,0.12248 z"
         style="font-family:Lobster;-inkscape-font-specification:Lobster;fill:#0097a7;fill-opacity:1"
         id="path831" />
    </g>
  </g>
</svg>
